<svg xmlns="http://www.w3.org/2000/svg" viewBox="0 0 100 100" width="100%" height="100%">
  <rect width="100" height="100" rx="22" fill="#00AF87"/>
  <!-- Owl Ears / Brow -->
  <path fill="#FFFFFF" d="M50 38.5c-4.5-6.5-12.8-10.5-22-10.5-7.5 0-14 3-18 8l5 4.5c3.2-3.8 8-6 13-6 7.5 0 14 4.5 17 11.2L50 49l5-3.3c3-6.7 9.5-11.2 17-11.2 5 0 9.8 2.2 13 6l5-4.5c-4-5-10.5-8-18-8-9.2 0-17.5 4-22 10.5z"/>
  <!-- Left Eye Outer -->
  <circle cx="34" cy="56" r="14" fill="#FFFFFF"/>
  <!-- Left Eye Iris (Red in TripAdvisor brand) -->
  <circle cx="34" cy="56" r="9" fill="#E82C2A"/>
  <!-- Left Eye Pupil -->
  <circle cx="34" cy="56" r="4.5" fill="#000000"/>
  <circle cx="32" cy="54" r="1.5" fill="#FFFFFF"/>
  <!-- Right Eye Outer -->
  <circle cx="66" cy="56" r="14" fill="#FFFFFF"/>
  <!-- Right Eye Iris (Green in TripAdvisor brand) -->
  <circle cx="66" cy="56" r="9" fill="#00AA6C"/>
  <!-- Right Eye Pupil -->
  <circle cx="66" cy="56" r="4.5" fill="#000000"/>
  <circle cx="64" cy="54" r="1.5" fill="#FFFFFF"/>
  <!-- Beak -->
  <polygon points="50,56 46,65 54,65" fill="#FFB700"/>
</svg>